<svg aria-hidden="true" style="position: absolute; width: 0; height: 0; overflow: hidden;" version="1.1" xmlns="http://www.w3.org/2000/svg" xmlns:xlink="http://www.w3.org/1999/xlink">
<defs>
<symbol id="pencil" viewBox="0 0 32 32">
<path d="M28.415 9.171l-5.586-5.585c-0.362-0.362-0.862-0.586-1.414-0.586s-1.052 0.224-1.414 0.586l-15.414 15.414c-0.362 0.359-0.586 0.857-0.586 1.407 0 0.002 0 0.004 0 0.007v-0 5.586c0 1.105 0.895 2 2 2v0h21c0.552 0 1-0.448 1-1s-0.448-1-1-1v0h-12.585l14-14c0.362-0.362 0.586-0.862 0.586-1.414s-0.224-1.052-0.586-1.414v0zM11.586 26h-5.586v-5.586l11-11 5.586 5.586zM24 13.586l-5.585-5.586 3-3 5.585 5.586z"></path>
</symbol>
<symbol id="plus" viewBox="0 0 32 32">
<path d="M28 16c0 0.552-0.448 1-1 1v0h-10v10c0 0.552-0.448 1-1 1s-1-0.448-1-1v0-10h-10c-0.552 0-1-0.448-1-1s0.448-1 1-1v0h10v-10c0-0.552 0.448-1 1-1s1 0.448 1 1v0 10h10c0.552 0 1 0.448 1 1v0z"></path>
</symbol>
<symbol id="trash" viewBox="0 0 32 32">
<path d="M27 6h-5v-1c0-1.657-1.343-3-3-3v0h-6c-1.657 0-3 1.343-3 3v0 1h-5c-0.552 0-1 0.448-1 1s0.448 1 1 1v0h1v18c0 1.105 0.895 2 2 2v0h16c1.105 0 2-0.895 2-2v0-18h1c0.552 0 1-0.448 1-1s-0.448-1-1-1v0zM12 5c0-0.552 0.448-1 1-1v0h6c0.552 0 1 0.448 1 1v0 1h-8zM24 26h-16v-18h16zM14 13v8c0 0.552-0.448 1-1 1s-1-0.448-1-1v0-8c0-0.552 0.448-1 1-1s1 0.448 1 1v0zM20 13v8c0 0.552-0.448 1-1 1s-1-0.448-1-1v0-8c0-0.552 0.448-1 1-1s1 0.448 1 1v0z"></path>
</symbol>
</defs>
</svg>
